<svg width="249" height="70" viewBox="0 0 249 70" fill="none" xmlns="http://www.w3.org/2000/svg">
<path fill-rule="evenodd" clip-rule="evenodd" d="M118.448 5.89485C134.47 5.89485 147.46 18.8847 147.46 34.9072C147.46 50.9297 134.47 63.9196 118.448 63.9196C102.426 63.9196 89.4359 50.9297 89.4359 34.9072C89.4359 18.8847 102.426 5.89485 118.448 5.89485Z" fill="#E6E7E8"/>
<path fill-rule="evenodd" clip-rule="evenodd" d="M194.012 26.9187H187.091V46.0079H183.264V26.9187H176.403V23.8104H194.012V26.9187ZM118.213 39.4732L110.391 27.0134V33.461L118.274 46.0079H122.132V23.8104H118.213V39.4732ZM108.381 51.5506C112.606 52.4404 115.775 56.1847 115.775 60.675C115.775 65.824 111.599 70 106.45 70C101.301 70 97.1252 65.824 97.1252 60.675C97.1252 56.1885 100.298 52.4404 104.519 51.5506V23.8104H108.377V51.5506H108.381ZM79.5205 38.7803C79.2971 41.1504 78.4225 42.9942 76.8968 44.3231C74.1482 46.7159 69.2226 46.9733 66.1409 45.0538C64.793 44.2133 63.7557 43.0245 63.0212 41.4798C61.45 38.167 61.45 31.8065 62.9909 28.4899C63.733 26.8922 64.7968 25.6655 66.1863 24.8023C69.2794 22.8752 74.152 23.0456 76.9119 25.4952C78.4074 26.8203 79.2744 28.6981 79.5205 31.1288H75.6777C75.496 29.5349 75.0303 28.3839 74.2845 27.6759C72.4293 25.9268 68.685 26.3432 67.1328 28.4558C65.2284 31.0568 65.2436 38.6706 67.0419 41.3132C68.5487 43.528 72.3498 43.865 74.2315 42.184C74.9924 41.5025 75.477 40.3705 75.6815 38.7841H79.5205V38.7803ZM95.4253 28.6716C93.5475 26.0214 89.4473 26.0366 87.5581 28.6641C85.5856 31.4089 85.5856 38.4017 87.5429 41.1428C89.4208 43.7817 93.5513 43.8612 95.4405 41.1883C97.3448 38.504 97.3334 31.3597 95.4253 28.6716ZM99.552 41.2148C101.1 37.8338 101.097 31.9314 99.5217 28.5618C98.7607 26.9301 97.678 25.6807 96.2809 24.8137C93.4642 23.0645 89.47 23.0607 86.6608 24.8288C85.2638 25.7072 84.181 26.9755 83.4124 28.6338C81.845 32.0185 81.8299 37.8603 83.4276 41.2413C84.1961 42.8655 85.2827 44.1187 86.6911 44.997C89.5154 46.7613 93.5058 46.7727 96.3264 44.997C97.7234 44.1149 98.7986 42.8541 99.552 41.2148ZM131.994 18.4456V39.6208L124.142 27.1156V33.5632L131.96 46.0117H135.818V18.4531C135.204 18.5781 134.568 18.6462 133.921 18.6462C133.262 18.6462 132.619 18.5781 131.994 18.4456ZM153.354 36.0961H144.238V42.9261H154.895V46.0079H140.38V23.8104H154.785V26.9187H144.238V33.0483H153.354V36.0961ZM174.972 38.7803C174.749 41.1504 173.874 42.9942 172.349 44.3231C169.6 46.7159 164.674 46.9733 161.593 45.0538C160.245 44.2133 159.208 43.0245 158.473 41.4798C156.902 38.167 156.902 31.8065 158.443 28.4899C159.185 26.8922 160.249 25.6655 161.638 24.8023C164.731 22.8752 169.608 23.0456 172.364 25.4952C173.859 26.8203 174.726 28.6981 174.972 31.1288H171.13C170.948 29.5349 170.482 28.3839 169.736 27.6759C167.885 25.9268 164.137 26.3432 162.585 28.4558C160.68 31.0568 160.695 38.6706 162.494 41.3132C164.001 43.528 167.802 43.865 169.683 42.184C170.444 41.5025 170.929 40.3705 171.133 38.7841H174.972V38.7803Z" fill="#3E4242"/>
<path fill-rule="evenodd" clip-rule="evenodd" d="M33.2219 56.7224L37.8332 31.231L41.7554 56.7224H52.2501L59.4018 13.0959H49.7135L46.946 44.4935L42.3309 13.0959H34.3728L29.4132 44.4935L26.4147 13.0959H16.2645L23.3026 56.7224H33.2219Z" fill="#CE1628"/>
<path fill-rule="evenodd" clip-rule="evenodd" d="M133.925 0C139.074 0 143.25 4.176 143.25 9.325C143.25 14.474 139.074 18.65 133.925 18.65C128.776 18.65 124.6 14.474 124.6 9.325C124.6 4.176 128.772 0 133.925 0Z" fill="#CE1628"/>
<path d="M10.1502 13.0959H0V56.7224H10.1502V13.0959Z" fill="#3E4242"/>
<path fill-rule="evenodd" clip-rule="evenodd" d="M197.007 26.7181V23.8823H197.908C198.366 23.8823 198.691 23.958 198.888 24.1095C199.21 24.3631 199.286 24.9576 199.047 25.2718C198.96 25.3892 198.85 25.48 198.725 25.5406L199.35 26.7181H198.453L197.98 25.6807H197.866V26.7181H197.007ZM197.87 25.1128C197.983 25.1128 198.101 25.1052 198.199 25.0408C198.339 24.95 198.354 24.6357 198.199 24.5638C198.097 24.5146 197.98 24.5108 197.87 24.5108V25.1128ZM198.055 27.7971C199.483 27.7971 200.478 26.7597 200.478 25.3664C200.478 23.9429 199.452 22.932 198.055 22.932C196.658 22.932 195.629 23.9391 195.629 25.3664C195.629 26.7635 196.628 27.7971 198.055 27.7971ZM198.055 27.2708C199.176 27.2708 199.884 26.4379 199.884 25.3664C199.884 24.2685 199.149 23.4621 198.055 23.4621C196.954 23.4621 196.208 24.2571 196.208 25.3664C196.212 26.453 196.927 27.2708 198.055 27.2708Z" fill="#3E4242"/>
<path d="M135.88 63C135.733 62.52 135.567 62.0267 135.38 61.52C135.207 61.0133 135.033 60.5067 134.86 60H129.46C129.287 60.5067 129.107 61.0133 128.92 61.52C128.747 62.0267 128.587 62.52 128.44 63H125.2C125.72 61.5067 126.213 60.1267 126.68 58.86C127.147 57.5933 127.6 56.4 128.04 55.28C128.493 54.16 128.933 53.1 129.36 52.1C129.8 51.0867 130.253 50.1 130.72 49.14H133.7C134.153 50.1 134.6 51.0867 135.04 52.1C135.48 53.1 135.92 54.16 136.36 55.28C136.813 56.4 137.273 57.5933 137.74 58.86C138.207 60.1267 138.7 61.5067 139.22 63H135.88ZM132.14 52.28C132.073 52.48 131.973 52.7533 131.84 53.1C131.707 53.4467 131.553 53.8467 131.38 54.3C131.207 54.7533 131.013 55.2533 130.8 55.8C130.6 56.3467 130.393 56.92 130.18 57.52H134.12C133.907 56.92 133.7 56.3467 133.5 55.8C133.3 55.2533 133.107 54.7533 132.92 54.3C132.747 53.8467 132.593 53.4467 132.46 53.1C132.327 52.7533 132.22 52.48 132.14 52.28ZM144.029 60.86C144.576 60.86 144.963 60.8067 145.189 60.7C145.416 60.5933 145.529 60.3867 145.529 60.08C145.529 59.84 145.383 59.6333 145.089 59.46C144.796 59.2733 144.349 59.0667 143.749 58.84C143.283 58.6667 142.856 58.4867 142.469 58.3C142.096 58.1133 141.776 57.8933 141.509 57.64C141.243 57.3733 141.036 57.06 140.889 56.7C140.743 56.34 140.669 55.9067 140.669 55.4C140.669 54.4133 141.036 53.6333 141.769 53.06C142.503 52.4867 143.509 52.2 144.789 52.2C145.429 52.2 146.043 52.26 146.629 52.38C147.216 52.4867 147.683 52.6067 148.029 52.74L147.509 55.06C147.163 54.94 146.783 54.8333 146.369 54.74C145.969 54.6467 145.516 54.6 145.009 54.6C144.076 54.6 143.609 54.86 143.609 55.38C143.609 55.5 143.629 55.6067 143.669 55.7C143.709 55.7933 143.789 55.8867 143.909 55.98C144.029 56.06 144.189 56.1533 144.389 56.26C144.603 56.3533 144.869 56.46 145.189 56.58C145.843 56.82 146.383 57.06 146.809 57.3C147.236 57.5267 147.569 57.78 147.809 58.06C148.063 58.3267 148.236 58.6267 148.329 58.96C148.436 59.2933 148.489 59.68 148.489 60.12C148.489 61.16 148.096 61.9467 147.309 62.48C146.536 63.0133 145.436 63.28 144.009 63.28C143.076 63.28 142.296 63.2 141.669 63.04C141.056 62.88 140.629 62.7467 140.389 62.64L140.889 60.22C141.396 60.42 141.916 60.58 142.449 60.7C142.983 60.8067 143.509 60.86 144.029 60.86ZM153.736 60.86C154.283 60.86 154.67 60.8067 154.896 60.7C155.123 60.5933 155.236 60.3867 155.236 60.08C155.236 59.84 155.09 59.6333 154.796 59.46C154.503 59.2733 154.056 59.0667 153.456 58.84C152.99 58.6667 152.563 58.4867 152.176 58.3C151.803 58.1133 151.483 57.8933 151.216 57.64C150.95 57.3733 150.743 57.06 150.596 56.7C150.45 56.34 150.376 55.9067 150.376 55.4C150.376 54.4133 150.743 53.6333 151.476 53.06C152.21 52.4867 153.216 52.2 154.496 52.2C155.136 52.2 155.75 52.26 156.336 52.38C156.923 52.4867 157.39 52.6067 157.736 52.74L157.216 55.06C156.87 54.94 156.49 54.8333 156.076 54.74C155.676 54.6467 155.223 54.6 154.716 54.6C153.783 54.6 153.316 54.86 153.316 55.38C153.316 55.5 153.336 55.6067 153.376 55.7C153.416 55.7933 153.496 55.8867 153.616 55.98C153.736 56.06 153.896 56.1533 154.096 56.26C154.31 56.3533 154.576 56.46 154.896 56.58C155.55 56.82 156.09 57.06 156.516 57.3C156.943 57.5267 157.276 57.78 157.516 58.06C157.77 58.3267 157.943 58.6267 158.036 58.96C158.143 59.2933 158.196 59.68 158.196 60.12C158.196 61.16 157.803 61.9467 157.016 62.48C156.243 63.0133 155.143 63.28 153.716 63.28C152.783 63.28 152.003 63.2 151.376 63.04C150.763 62.88 150.336 62.7467 150.096 62.64L150.596 60.22C151.103 60.42 151.623 60.58 152.156 60.7C152.69 60.8067 153.216 60.86 153.736 60.86ZM169.403 62.64C168.897 62.7867 168.243 62.92 167.443 63.04C166.643 63.1733 165.803 63.24 164.923 63.24C164.03 63.24 163.283 63.12 162.683 62.88C162.097 62.64 161.63 62.3067 161.283 61.88C160.937 61.44 160.69 60.92 160.543 60.32C160.397 59.72 160.323 59.06 160.323 58.34V52.48H163.303V57.98C163.303 58.94 163.43 59.6333 163.683 60.06C163.937 60.4867 164.41 60.7 165.103 60.7C165.317 60.7 165.543 60.6933 165.783 60.68C166.023 60.6533 166.237 60.6267 166.423 60.6V52.48H169.403V62.64ZM177.981 57.42C177.981 56.46 177.854 55.78 177.601 55.38C177.361 54.98 176.941 54.78 176.341 54.78C176.154 54.78 175.961 54.7933 175.761 54.82C175.561 54.8333 175.367 54.8533 175.181 54.88V63H172.201V52.84C172.454 52.7733 172.747 52.7067 173.081 52.64C173.427 52.56 173.787 52.4933 174.161 52.44C174.547 52.3733 174.941 52.3267 175.341 52.3C175.741 52.26 176.134 52.24 176.521 52.24C177.281 52.24 177.894 52.34 178.361 52.54C178.841 52.7267 179.234 52.9533 179.541 53.22C179.967 52.9133 180.454 52.6733 181.001 52.5C181.561 52.3267 182.074 52.24 182.541 52.24C183.381 52.24 184.067 52.36 184.601 52.6C185.147 52.8267 185.581 53.1533 185.901 53.58C186.221 54.0067 186.441 54.5133 186.561 55.1C186.681 55.6867 186.741 56.34 186.741 57.06V63H183.761V57.42C183.761 56.46 183.634 55.78 183.381 55.38C183.141 54.98 182.721 54.78 182.121 54.78C181.961 54.78 181.734 54.82 181.441 54.9C181.161 54.98 180.927 55.08 180.741 55.2C180.834 55.5067 180.894 55.8333 180.921 56.18C180.947 56.5133 180.961 56.8733 180.961 57.26V63H177.981V57.42ZM196.187 57.82C196.187 56.9 195.98 56.1667 195.567 55.62C195.154 55.06 194.54 54.78 193.727 54.78C193.46 54.78 193.214 54.7933 192.987 54.82C192.76 54.8333 192.574 54.8533 192.427 54.88V60.26C192.614 60.38 192.854 60.48 193.147 60.56C193.454 60.64 193.76 60.68 194.067 60.68C195.48 60.68 196.187 59.7267 196.187 57.82ZM199.227 57.74C199.227 58.5533 199.127 59.2933 198.927 59.96C198.727 60.6267 198.434 61.2 198.047 61.68C197.66 62.16 197.18 62.5333 196.607 62.8C196.034 63.0667 195.374 63.2 194.627 63.2C194.214 63.2 193.827 63.16 193.467 63.08C193.107 63 192.76 62.8867 192.427 62.74V66.7H189.447V52.84C189.714 52.76 190.02 52.6867 190.367 52.62C190.714 52.54 191.074 52.4733 191.447 52.42C191.834 52.3667 192.22 52.3267 192.607 52.3C193.007 52.26 193.387 52.24 193.747 52.24C194.614 52.24 195.387 52.3733 196.067 52.64C196.747 52.8933 197.32 53.26 197.787 53.74C198.254 54.2067 198.607 54.78 198.847 55.46C199.1 56.14 199.227 56.9 199.227 57.74ZM201.417 49.86L204.397 49.38V52.48H207.977V54.96H204.397V58.66C204.397 59.2867 204.504 59.7867 204.717 60.16C204.944 60.5333 205.391 60.72 206.057 60.72C206.377 60.72 206.704 60.6933 207.037 60.64C207.384 60.5733 207.697 60.4867 207.977 60.38L208.397 62.7C208.037 62.8467 207.637 62.9733 207.197 63.08C206.757 63.1867 206.217 63.24 205.577 63.24C204.764 63.24 204.091 63.1333 203.557 62.92C203.024 62.6933 202.597 62.3867 202.277 62C201.957 61.6 201.731 61.12 201.597 60.56C201.477 60 201.417 59.38 201.417 58.7V49.86ZM213.384 63H210.404V52.48H213.384V63ZM213.664 49.44C213.664 49.9867 213.484 50.42 213.124 50.74C212.777 51.0467 212.364 51.2 211.884 51.2C211.404 51.2 210.984 51.0467 210.624 50.74C210.277 50.42 210.104 49.9867 210.104 49.44C210.104 48.8933 210.277 48.4667 210.624 48.16C210.984 47.84 211.404 47.68 211.884 47.68C212.364 47.68 212.777 47.84 213.124 48.16C213.484 48.4667 213.664 48.8933 213.664 49.44ZM226.025 57.72C226.025 58.5467 225.905 59.3067 225.665 60C225.425 60.68 225.078 61.2667 224.625 61.76C224.172 62.24 223.625 62.6133 222.985 62.88C222.358 63.1467 221.652 63.28 220.865 63.28C220.092 63.28 219.385 63.1467 218.745 62.88C218.118 62.6133 217.578 62.24 217.125 61.76C216.672 61.2667 216.318 60.68 216.065 60C215.812 59.3067 215.685 58.5467 215.685 57.72C215.685 56.8933 215.812 56.14 216.065 55.46C216.332 54.78 216.692 54.2 217.145 53.72C217.612 53.24 218.158 52.8667 218.785 52.6C219.425 52.3333 220.118 52.2 220.865 52.2C221.625 52.2 222.318 52.3333 222.945 52.6C223.585 52.8667 224.132 53.24 224.585 53.72C225.038 54.2 225.392 54.78 225.645 55.46C225.898 56.14 226.025 56.8933 226.025 57.72ZM222.985 57.72C222.985 56.8 222.798 56.08 222.425 55.56C222.065 55.0267 221.545 54.76 220.865 54.76C220.185 54.76 219.658 55.0267 219.285 55.56C218.912 56.08 218.725 56.8 218.725 57.72C218.725 58.64 218.912 59.3733 219.285 59.92C219.658 60.4533 220.185 60.72 220.865 60.72C221.545 60.72 222.065 60.4533 222.425 59.92C222.798 59.3733 222.985 58.64 222.985 57.72ZM228.334 52.84C228.84 52.6933 229.494 52.56 230.294 52.44C231.094 52.3067 231.934 52.24 232.814 52.24C233.707 52.24 234.447 52.36 235.034 52.6C235.634 52.8267 236.107 53.1533 236.454 53.58C236.8 54.0067 237.047 54.5133 237.194 55.1C237.34 55.6867 237.414 56.34 237.414 57.06V63H234.434V57.42C234.434 56.46 234.307 55.78 234.054 55.38C233.8 54.98 233.327 54.78 232.634 54.78C232.42 54.78 232.194 54.7933 231.954 54.82C231.714 54.8333 231.5 54.8533 231.314 54.88V63H228.334V52.84ZM243.131 60.86C243.678 60.86 244.064 60.8067 244.291 60.7C244.518 60.5933 244.631 60.3867 244.631 60.08C244.631 59.84 244.484 59.6333 244.191 59.46C243.898 59.2733 243.451 59.0667 242.851 58.84C242.384 58.6667 241.958 58.4867 241.571 58.3C241.198 58.1133 240.878 57.8933 240.611 57.64C240.344 57.3733 240.138 57.06 239.991 56.7C239.844 56.34 239.771 55.9067 239.771 55.4C239.771 54.4133 240.138 53.6333 240.871 53.06C241.604 52.4867 242.611 52.2 243.891 52.2C244.531 52.2 245.144 52.26 245.731 52.38C246.318 52.4867 246.784 52.6067 247.131 52.74L246.611 55.06C246.264 54.94 245.884 54.8333 245.471 54.74C245.071 54.6467 244.618 54.6 244.111 54.6C243.178 54.6 242.711 54.86 242.711 55.38C242.711 55.5 242.731 55.6067 242.771 55.7C242.811 55.7933 242.891 55.8867 243.011 55.98C243.131 56.06 243.291 56.1533 243.491 56.26C243.704 56.3533 243.971 56.46 244.291 56.58C244.944 56.82 245.484 57.06 245.911 57.3C246.338 57.5267 246.671 57.78 246.911 58.06C247.164 58.3267 247.338 58.6267 247.431 58.96C247.538 59.2933 247.591 59.68 247.591 60.12C247.591 61.16 247.198 61.9467 246.411 62.48C245.638 63.0133 244.538 63.28 243.111 63.28C242.178 63.28 241.398 63.2 240.771 63.04C240.158 62.88 239.731 62.7467 239.491 62.64L239.991 60.22C240.498 60.42 241.018 60.58 241.551 60.7C242.084 60.8067 242.611 60.86 243.131 60.86Z" fill="#3E4242"/>
</svg>
